<svg width="26" height="32" viewBox="0 0 26 32" fill="none" xmlns="http://www.w3.org/2000/svg">
<path d="M12.5219 29.9872C6.30989 29.8665 1.3719 24.7328 1.4926 18.5208L1.75486 5.02333C1.7951 2.95265 3.50633 1.30665 5.57701 1.34689L20.5742 1.63829C22.6449 1.67853 24.2909 3.38976 24.2506 5.46043L23.9884 18.9579C23.8677 25.1699 18.734 30.1079 12.5219 29.9872Z" fill="#F4ECDF"/>
<path d="M12.5219 29.9872C6.30989 29.8665 1.3719 24.7328 1.4926 18.5208L1.75486 5.02333C1.7951 2.95265 3.50633 1.30665 5.57701 1.34689L20.5742 1.63829C22.6449 1.67853 24.2909 3.38976 24.2506 5.46043L23.9884 18.9579C23.8677 25.1699 18.734 30.1079 12.5219 29.9872Z" fill="#FFFEFB"/>
<path d="M12.5219 29.9872C6.30989 29.8665 1.3719 24.7328 1.4926 18.5208L1.75486 5.02333C1.7951 2.95265 3.50633 1.30665 5.57701 1.34689L20.5742 1.63829C22.6449 1.67853 24.2909 3.38976 24.2506 5.46043L23.9884 18.9579C23.8677 25.1699 18.734 30.1079 12.5219 29.9872Z" stroke="#F4ECDF" stroke-width="2.5"/>
</svg>
